<svg width="271" height="42" viewBox="0 0 271 42" fill="none" xmlns="http://www.w3.org/2000/svg">
<g transform="translate(0 -142.152)">
<path d="M9.99902 146.5H19.4951V153.198H9.99902V166.939C9.99911 172.185 14.2497 176.435 19.4951 176.436V183.149C10.5426 183.149 3.28524 175.892 3.28516 166.939V153.198H0V146.5H3.28516V142.152H9.99902V146.5Z" fill="#E6FF32"/>
<path fill-rule="evenodd" clip-rule="evenodd" d="M36.3721 150.729C45.3248 150.729 52.582 157.987 52.582 166.939C52.582 168.086 52.4605 169.206 52.2334 170.287H27.4844C28.8391 173.878 32.3081 176.433 36.3721 176.433V176.436C38.992 176.436 41.366 175.376 43.083 173.659H51.125C48.5697 179.256 42.9263 183.149 36.3721 183.149C27.4194 183.149 20.1621 175.892 20.1621 166.939C20.1622 157.987 27.4194 150.73 36.3721 150.729ZM36.373 157.443C32.3071 157.444 28.8418 160 27.4873 163.59H45.2598C43.9052 159.999 40.4367 157.444 36.373 157.443Z" fill="#E6FF32"/>
<path fill-rule="evenodd" clip-rule="evenodd" d="M253.79 150.729C262.743 150.729 270 157.987 270 166.939C270 168.086 269.879 169.206 269.651 170.287H244.902C246.257 173.878 249.726 176.433 253.79 176.433V176.436C256.41 176.436 258.784 175.376 260.501 173.659H268.543C265.988 179.256 260.344 183.149 253.79 183.149C244.837 183.149 237.58 175.892 237.58 166.939C237.58 157.987 244.837 150.73 253.79 150.729ZM253.791 157.443C249.725 157.444 246.26 160 244.905 163.59H262.678C261.323 159.999 257.855 157.444 253.791 157.443Z" fill="#E6FF32"/>
<path fill-rule="evenodd" clip-rule="evenodd" d="M200.586 153.814C203.257 151.873 206.543 150.727 210.099 150.727C219.051 150.727 226.309 157.984 226.309 166.937C226.309 175.889 219.051 183.146 210.099 183.146C206.543 183.146 203.257 182 200.586 180.059V182.208H193.889V142.152H200.586V153.814ZM210.099 157.44C204.853 157.441 200.603 161.691 200.603 166.937C200.603 172.182 204.853 176.433 210.099 176.433C215.344 176.433 219.595 172.182 219.595 166.937C219.595 161.691 215.344 157.44 210.099 157.44Z" fill="#E6FF32"/>
<path fill-rule="evenodd" clip-rule="evenodd" d="M71.0811 150.726C80.0338 150.726 87.291 157.983 87.291 166.936C87.291 167.209 87.2831 167.479 87.2695 167.747H87.291V182.207H80.5938V180.058C77.9223 181.999 74.6367 183.146 71.0811 183.146C62.1284 183.145 54.8711 175.888 54.8711 166.936C54.8712 157.983 62.1284 150.726 71.0811 150.726ZM71.0811 157.439C65.8355 157.44 61.585 161.69 61.585 166.936C61.585 172.181 65.8355 176.432 71.0811 176.432C76.3267 176.432 80.5771 172.181 80.5771 166.936C80.5771 161.69 76.3267 157.439 71.0811 157.439Z" fill="#E6FF32"/>
<path fill-rule="evenodd" clip-rule="evenodd" d="M174.854 150.726C183.807 150.726 191.064 157.983 191.064 166.936C191.064 167.209 191.056 167.479 191.043 167.747H191.064V182.207H184.367V180.058C181.696 181.999 178.41 183.146 174.854 183.146C165.902 183.145 158.645 175.888 158.645 166.936C158.645 157.983 165.902 150.726 174.854 150.726ZM174.854 157.439C169.609 157.44 165.358 161.69 165.358 166.936C165.358 172.181 169.609 176.432 174.854 176.432C180.1 176.432 184.351 172.181 184.351 166.936C184.351 161.69 180.1 157.439 174.854 157.439Z" fill="#E6FF32"/>
<path d="M105.798 150.725C113.601 150.725 120.115 156.24 121.659 163.587H114.684C113.329 159.996 109.859 157.441 105.795 157.441C100.549 157.442 96.2988 161.692 96.2988 166.938C96.2989 172.183 100.549 176.433 105.795 176.434V176.428C109.862 176.428 113.329 173.873 114.684 170.282H121.659C120.118 177.629 113.601 183.145 105.798 183.145C96.8452 183.144 89.5879 175.887 89.5879 166.935C89.588 157.982 96.8452 150.725 105.798 150.725Z" fill="#E6FF32"/>
<path d="M130.633 142.152V153.814C133.304 151.873 136.59 150.727 140.146 150.727C149.004 150.727 156.196 157.83 156.351 166.65H156.358V166.937L156.361 166.939V182.208H149.663V166.972H149.645V166.937C149.644 161.691 145.394 157.44 140.148 157.44C134.903 157.44 130.652 161.691 130.652 166.937V166.972H130.633V182.208H123.936V142.152H130.633Z" fill="#E6FF32"/>
<path d="M235.293 182.208H228.596V142.152H235.293V182.208Z" fill="#E6FF32"/>
</g>
</svg>
