<svg width="271" height="42" viewBox="0 0 271 42" fill="none" xmlns="http://www.w3.org/2000/svg">
<g transform="translate(0 -71.152)">
<path d="M10.4189 75.5H19.915V82.1982H10.4189V95.9395C10.419 101.185 14.6696 105.435 19.915 105.436V112.149C10.9625 112.149 3.70516 104.892 3.70508 95.9395V82.1982H0.419922V75.5H3.70508V71.1523H10.4189V75.5Z" fill="white"/>
<path fill-rule="evenodd" clip-rule="evenodd" d="M36.792 79.7295C45.7447 79.7295 53.0019 86.9868 53.002 95.9395C53.002 97.0859 52.8805 98.2055 52.6533 99.2871H27.9043C29.259 102.878 32.7281 105.433 36.792 105.433V105.436C39.4119 105.436 41.786 104.376 43.5029 102.659H51.5449C48.9897 108.256 43.3462 112.149 36.792 112.149C27.8393 112.149 20.582 104.892 20.582 95.9395C20.5821 86.9868 27.8394 79.7296 36.792 79.7295ZM36.793 86.4434C32.7271 86.4441 29.2617 88.9996 27.9072 92.5898H45.6797C44.3251 88.9993 40.8566 86.4437 36.793 86.4434Z" fill="white"/>
<path fill-rule="evenodd" clip-rule="evenodd" d="M254.21 79.7295C263.163 79.7295 270.42 86.9868 270.42 95.9395C270.42 97.0859 270.298 98.2055 270.071 99.2871H245.322C246.677 102.878 250.146 105.433 254.21 105.433V105.436C256.83 105.436 259.204 104.376 260.921 102.659H268.963C266.408 108.256 260.764 112.149 254.21 112.149C245.257 112.149 238 104.892 238 95.9395C238 86.9868 245.257 79.7296 254.21 79.7295ZM254.211 86.4434C250.145 86.4441 246.68 88.9996 245.325 92.5898H263.098C261.743 88.9993 258.275 86.4437 254.211 86.4434Z" fill="white"/>
<path fill-rule="evenodd" clip-rule="evenodd" d="M201.006 82.8145C203.677 80.8731 206.963 79.7266 210.519 79.7266C219.471 79.7266 226.728 86.9838 226.729 95.9365C226.729 104.889 219.471 112.146 210.519 112.146C206.963 112.146 203.677 111 201.006 109.059V111.208H194.309V71.1523H201.006V82.8145ZM210.519 86.4404C205.273 86.4405 201.022 90.691 201.022 95.9365C201.022 101.182 205.273 105.433 210.519 105.433C215.764 105.433 220.015 101.182 220.015 95.9365C220.015 90.6909 215.764 86.4404 210.519 86.4404Z" fill="white"/>
<path fill-rule="evenodd" clip-rule="evenodd" d="M71.501 79.7256C80.4537 79.7256 87.7109 86.9829 87.7109 95.9355C87.7109 96.2086 87.703 96.4794 87.6895 96.7471H87.7109V111.207H81.0137V109.058C78.3422 110.999 75.0567 112.146 71.501 112.146C62.5483 112.145 55.291 104.888 55.291 95.9355C55.2911 86.9829 62.5483 79.7257 71.501 79.7256ZM71.501 86.4395C66.2554 86.4395 62.0049 90.69 62.0049 95.9355C62.0049 101.181 66.2554 105.432 71.501 105.432C76.7466 105.432 80.9971 101.181 80.9971 95.9355C80.997 90.69 76.7466 86.4395 71.501 86.4395Z" fill="white"/>
<path fill-rule="evenodd" clip-rule="evenodd" d="M175.274 79.7256C184.227 79.7256 191.484 86.9829 191.484 95.9355C191.484 96.2086 191.476 96.4794 191.463 96.7471H191.484V111.207H184.787V109.058C182.116 110.999 178.83 112.146 175.274 112.146C166.322 112.145 159.064 104.888 159.064 95.9355C159.065 86.9829 166.322 79.7257 175.274 79.7256ZM175.274 86.4395C170.029 86.4395 165.778 90.69 165.778 95.9355C165.778 101.181 170.029 105.432 175.274 105.432C180.52 105.432 184.771 101.181 184.771 95.9355C184.77 90.69 180.52 86.4395 175.274 86.4395Z" fill="white"/>
<path d="M106.218 79.7246C114.021 79.7246 120.535 85.2405 122.079 92.5869H115.104C113.749 88.9961 110.279 86.4414 106.215 86.4414C100.969 86.4416 96.7188 90.692 96.7188 95.9375C96.7188 101.183 100.969 105.433 106.215 105.434V105.428C110.282 105.428 113.749 102.873 115.104 99.2822H122.079C120.538 106.629 114.021 112.145 106.218 112.145C97.2651 112.144 90.0078 104.887 90.0078 95.9346C90.0079 86.9819 97.2651 79.7247 106.218 79.7246Z" fill="white"/>
<path d="M131.053 71.1523V82.8145C133.724 80.8731 137.01 79.7266 140.565 79.7266C149.424 79.7266 156.616 86.8302 156.771 95.6504H156.778V95.9365L156.781 95.9395V111.208H150.083V95.9717H150.064V95.9365C150.064 90.691 145.814 86.4405 140.568 86.4404C135.323 86.4404 131.072 90.6909 131.072 95.9365V95.9717H131.053V111.208H124.355V71.1523H131.053Z" fill="white"/>
<path d="M235.713 111.208H229.016V71.1523H235.713V111.208Z" fill="white"/>
</g>
</svg>
