<svg width="271" height="42" viewBox="0 0 271 42" fill="none" xmlns="http://www.w3.org/2000/svg">
<g transform="translate(0 0)">
<path d="M10.4189 4.34766H19.915V11.0459H10.4189V24.7871C10.419 30.0326 14.6696 34.2831 19.915 34.2832V40.9971C10.9625 40.9969 3.70516 33.7397 3.70508 24.7871V11.0459H0.419922V4.34766H3.70508V0H10.4189V4.34766Z" fill="black"/>
<path fill-rule="evenodd" clip-rule="evenodd" d="M36.792 8.57715C45.7447 8.57715 53.0019 15.8344 53.002 24.7871C53.002 25.9336 52.8805 27.0532 52.6533 28.1348H27.9043C29.259 31.7255 32.7281 34.2802 36.792 34.2803V34.2832C39.4119 34.2832 41.786 33.2236 43.5029 31.5068H51.5449C48.9897 37.1038 43.3462 40.9971 36.792 40.9971C27.8393 40.997 20.582 33.7398 20.582 24.7871C20.5821 15.8345 27.8394 8.57722 36.792 8.57715ZM36.793 15.291C32.7271 15.2918 29.2617 17.8472 27.9072 21.4375H45.6797C44.3251 17.8469 40.8566 15.2914 36.793 15.291Z" fill="black"/>
<path fill-rule="evenodd" clip-rule="evenodd" d="M254.21 8.57715C263.163 8.57715 270.42 15.8344 270.42 24.7871C270.42 25.9336 270.298 27.0532 270.071 28.1348H245.322C246.677 31.7255 250.146 34.2802 254.21 34.2803V34.2832C256.83 34.2832 259.204 33.2236 260.921 31.5068H268.963C266.408 37.1038 260.764 40.9971 254.21 40.9971C245.257 40.997 238 33.7398 238 24.7871C238 15.8345 245.257 8.57722 254.21 8.57715ZM254.211 15.291C250.145 15.2918 246.68 17.8472 245.325 21.4375H263.098C261.743 17.8469 258.275 15.2914 254.211 15.291Z" fill="black"/>
<path fill-rule="evenodd" clip-rule="evenodd" d="M201.006 11.6621C203.677 9.72071 206.963 8.57425 210.519 8.57422C219.471 8.57422 226.728 15.8315 226.729 24.7842C226.729 33.7369 219.471 40.9941 210.519 40.9941C206.963 40.9941 203.677 39.8476 201.006 37.9062V40.0557H194.309V0H201.006V11.6621ZM210.519 15.2881C205.273 15.2882 201.022 19.5386 201.022 24.7842C201.022 30.0298 205.273 34.2802 210.519 34.2803C215.764 34.2803 220.015 30.0298 220.015 24.7842C220.015 19.5386 215.764 15.2881 210.519 15.2881Z" fill="black"/>
<path fill-rule="evenodd" clip-rule="evenodd" d="M71.501 8.57324C80.4537 8.57324 87.7109 15.8305 87.7109 24.7832C87.7109 25.0563 87.703 25.327 87.6895 25.5947H87.7109V40.0547H81.0137V37.9053C78.3422 39.8467 75.0567 40.9932 71.501 40.9932C62.5483 40.9931 55.291 33.7359 55.291 24.7832C55.2911 15.8306 62.5483 8.57332 71.501 8.57324ZM71.501 15.2871C66.2554 15.2872 62.0049 19.5377 62.0049 24.7832C62.0049 30.0288 66.2554 34.2792 71.501 34.2793C76.7466 34.2793 80.9971 30.0288 80.9971 24.7832C80.997 19.5376 76.7466 15.2871 71.501 15.2871Z" fill="black"/>
<path fill-rule="evenodd" clip-rule="evenodd" d="M175.274 8.57324C184.227 8.57324 191.484 15.8305 191.484 24.7832C191.484 25.0563 191.476 25.327 191.463 25.5947H191.484V40.0547H184.787V37.9053C182.116 39.8467 178.83 40.9932 175.274 40.9932C166.322 40.9931 159.064 33.7359 159.064 24.7832C159.065 15.8306 166.322 8.57332 175.274 8.57324ZM175.274 15.2871C170.029 15.2872 165.778 19.5377 165.778 24.7832C165.778 30.0288 170.029 34.2792 175.274 34.2793C180.52 34.2793 184.771 30.0288 184.771 24.7832C184.77 19.5376 180.52 15.2871 175.274 15.2871Z" fill="black"/>
<path d="M106.218 8.57227C114.021 8.57227 120.535 14.0881 122.079 21.4346H115.104C113.749 17.8438 110.279 15.2891 106.215 15.2891C100.969 15.2893 96.7188 19.5396 96.7188 24.7852C96.7188 30.0306 100.969 34.2811 106.215 34.2812V34.2754C110.282 34.2754 113.749 31.7207 115.104 28.1299H122.079C120.538 35.4764 114.021 40.9922 106.218 40.9922C97.2651 40.9921 90.0078 33.7349 90.0078 24.7822C90.0079 15.8296 97.2651 8.57234 106.218 8.57227Z" fill="black"/>
<path d="M131.053 0V11.6621C133.724 9.72071 137.01 8.57425 140.565 8.57422C149.424 8.57422 156.616 15.6778 156.771 24.498H156.778V24.7842L156.781 24.7871V40.0557H150.083V24.8193H150.064V24.7842C150.064 19.5386 145.814 15.2881 140.568 15.2881C135.323 15.2881 131.072 19.5386 131.072 24.7842V24.8193H131.053V40.0557H124.355V0H131.053Z" fill="black"/>
<path d="M235.713 40.0557H229.016V0H235.713V40.0557Z" fill="black"/>
</g>
</svg>
